<mxfile host="app.diagrams.net" modified="2023-05-26T09:38:47.419Z" agent="Mozilla/5.0 (Windows NT 10.0; Win64; x64) AppleWebKit/537.36 (KHTML, like Gecko) Chrome/113.0.0.0 Safari/537.36" etag="qp9-d6Y09CBWTFaNARPd" version="21.3.4" type="google">
  <diagram name="Page-1" id="3LxDZD4Qj8QgHKMUuAcO">
    <mxGraphModel grid="1" page="1" gridSize="10" guides="1" tooltips="1" connect="1" arrows="1" fold="1" pageScale="1" pageWidth="827" pageHeight="1169" math="0" shadow="0">
      <root>
        <mxCell id="0" />
        <mxCell id="1" parent="0" />
        <mxCell id="PJ4_7-Mat80FA9mqTey0-2" value="Initialization" style="rounded=1;whiteSpace=wrap;html=1;absoluteArcSize=1;arcSize=14;strokeWidth=2;" vertex="1" parent="1">
          <mxGeometry x="314" y="150" width="136" height="100" as="geometry" />
        </mxCell>
        <mxCell id="PJ4_7-Mat80FA9mqTey0-3" value="" style="endArrow=classic;html=1;rounded=0;exitX=0.5;exitY=1;exitDx=0;exitDy=0;" edge="1" parent="1" source="PJ4_7-Mat80FA9mqTey0-2">
          <mxGeometry width="50" height="50" relative="1" as="geometry">
            <mxPoint x="370" y="320" as="sourcePoint" />
            <mxPoint x="382" y="320" as="targetPoint" />
          </mxGeometry>
        </mxCell>
        <mxCell id="PJ4_7-Mat80FA9mqTey0-5" style="edgeStyle=orthogonalEdgeStyle;rounded=0;orthogonalLoop=1;jettySize=auto;html=1;" edge="1" parent="1" source="PJ4_7-Mat80FA9mqTey0-4">
          <mxGeometry relative="1" as="geometry">
            <mxPoint x="382" y="560" as="targetPoint" />
          </mxGeometry>
        </mxCell>
        <mxCell id="PJ4_7-Mat80FA9mqTey0-9" value="No" style="edgeLabel;html=1;align=center;verticalAlign=middle;resizable=0;points=[];" vertex="1" connectable="0" parent="PJ4_7-Mat80FA9mqTey0-5">
          <mxGeometry x="-0.1698" relative="1" as="geometry">
            <mxPoint as="offset" />
          </mxGeometry>
        </mxCell>
        <mxCell id="PJ4_7-Mat80FA9mqTey0-6" style="edgeStyle=orthogonalEdgeStyle;rounded=0;orthogonalLoop=1;jettySize=auto;html=1;" edge="1" parent="1" source="PJ4_7-Mat80FA9mqTey0-4">
          <mxGeometry relative="1" as="geometry">
            <mxPoint x="590" y="370" as="targetPoint" />
          </mxGeometry>
        </mxCell>
        <mxCell id="xoApMmZg5tXIhNVgm4x1-1" value="Yes" style="edgeLabel;html=1;align=center;verticalAlign=middle;resizable=0;points=[];" connectable="0" vertex="1" parent="PJ4_7-Mat80FA9mqTey0-6">
          <mxGeometry x="-0.1067" relative="1" as="geometry">
            <mxPoint as="offset" />
          </mxGeometry>
        </mxCell>
        <mxCell id="PJ4_7-Mat80FA9mqTey0-4" value="Last Iteration?" style="strokeWidth=2;html=1;shape=mxgraph.flowchart.decision;whiteSpace=wrap;" vertex="1" parent="1">
          <mxGeometry x="332" y="320" width="100" height="100" as="geometry" />
        </mxCell>
        <mxCell id="PJ4_7-Mat80FA9mqTey0-12" value="" style="edgeStyle=orthogonalEdgeStyle;rounded=0;orthogonalLoop=1;jettySize=auto;html=1;" edge="1" parent="1" source="PJ4_7-Mat80FA9mqTey0-10" target="PJ4_7-Mat80FA9mqTey0-11">
          <mxGeometry relative="1" as="geometry" />
        </mxCell>
        <mxCell id="PJ4_7-Mat80FA9mqTey0-10" value="FSM" style="rounded=1;whiteSpace=wrap;html=1;absoluteArcSize=1;arcSize=14;strokeWidth=2;" vertex="1" parent="1">
          <mxGeometry x="332" y="560" width="100" height="100" as="geometry" />
        </mxCell>
        <mxCell id="PJ4_7-Mat80FA9mqTey0-14" value="" style="edgeStyle=orthogonalEdgeStyle;rounded=0;orthogonalLoop=1;jettySize=auto;html=1;" edge="1" parent="1" source="PJ4_7-Mat80FA9mqTey0-11" target="PJ4_7-Mat80FA9mqTey0-13">
          <mxGeometry relative="1" as="geometry" />
        </mxCell>
        <mxCell id="PJ4_7-Mat80FA9mqTey0-11" value="Formulate QP" style="rounded=1;whiteSpace=wrap;html=1;absoluteArcSize=1;arcSize=14;strokeWidth=2;" vertex="1" parent="1">
          <mxGeometry x="332" y="740" width="100" height="100" as="geometry" />
        </mxCell>
        <mxCell id="PJ4_7-Mat80FA9mqTey0-16" value="" style="edgeStyle=orthogonalEdgeStyle;rounded=0;orthogonalLoop=1;jettySize=auto;html=1;" edge="1" parent="1" source="PJ4_7-Mat80FA9mqTey0-13" target="PJ4_7-Mat80FA9mqTey0-15">
          <mxGeometry relative="1" as="geometry" />
        </mxCell>
        <mxCell id="PJ4_7-Mat80FA9mqTey0-13" value="Solve QP" style="rounded=1;whiteSpace=wrap;html=1;absoluteArcSize=1;arcSize=14;strokeWidth=2;" vertex="1" parent="1">
          <mxGeometry x="332" y="920" width="100" height="100" as="geometry" />
        </mxCell>
        <mxCell id="PJ4_7-Mat80FA9mqTey0-17" style="edgeStyle=orthogonalEdgeStyle;rounded=0;orthogonalLoop=1;jettySize=auto;html=1;entryX=0;entryY=0.5;entryDx=0;entryDy=0;entryPerimeter=0;" edge="1" parent="1" source="PJ4_7-Mat80FA9mqTey0-15" target="PJ4_7-Mat80FA9mqTey0-4">
          <mxGeometry relative="1" as="geometry">
            <mxPoint x="150" y="370" as="targetPoint" />
            <Array as="points">
              <mxPoint x="100" y="1150" />
              <mxPoint x="100" y="370" />
            </Array>
          </mxGeometry>
        </mxCell>
        <mxCell id="PJ4_7-Mat80FA9mqTey0-15" value="Update and Simulate System Dynamics" style="rounded=1;whiteSpace=wrap;html=1;absoluteArcSize=1;arcSize=14;strokeWidth=2;" vertex="1" parent="1">
          <mxGeometry x="332" y="1100" width="100" height="100" as="geometry" />
        </mxCell>
        <mxCell id="PJ4_7-Mat80FA9mqTey0-18" value="Create Animation" style="rounded=1;whiteSpace=wrap;html=1;absoluteArcSize=1;arcSize=14;strokeWidth=2;" vertex="1" parent="1">
          <mxGeometry x="590" y="320" width="100" height="100" as="geometry" />
        </mxCell>
      </root>
    </mxGraphModel>
  </diagram>
</mxfile>
